 <svg width="16" height="16" viewBox="0 0 16 16" fill="none" xmlns="http://www.w3.org/2000/svg"><path fill-rule="evenodd" clip-rule="evenodd" d="M2.85714 0L2.85545 4.99544e-06C2.09883 0.00224127 1.37383 0.303801 0.838815 0.838818C0.303798 1.37383 0.00223628 2.09883 0 2.85546V10.5714L2.31607e-06 10.5731C0.00193964 11.254 0.273308 11.9065 0.75482 12.388C1.23633 12.8696 1.88884 13.1409 2.5698 13.1429L2.57143 13.1429H2.85714V13.3929C2.85714 14.8327 4.0244 16 5.46429 16H13.3929C14.8327 16 16 14.8327 16 13.3929V5.46429C16 4.0244 14.8327 2.85714 13.3929 2.85714H13.137L13.1427 2.58333L13.1429 2.56981C13.1409 1.88885 12.8695 1.23633 12.388 0.754822C11.9065 0.27331 11.254 0.00194214 10.5731 2.49772e-06L2.85714 0ZM12.5562 4C12.5546 4.00001 12.553 4.00001 12.5514 4H5.46429C4.65558 4 4 4.65558 4 5.46429V12.5714V13.3929C4 14.2016 4.65558 14.8571 5.46429 14.8571H13.3929C14.2016 14.8571 14.8571 14.2016 14.8571 13.3929V5.46429C14.8571 4.65558 14.2016 4 13.3929 4H12.5562ZM2.85714 12V5.46429C2.85714 4.0244 4.0244 2.85714 5.46429 2.85714H11.9939L12 2.56687C11.9973 2.19013 11.8464 1.82947 11.5799 1.56294C11.3121 1.29514 10.9493 1.14413 10.5705 1.14286H2.85805C2.40364 1.14441 1.96827 1.32561 1.64694 1.64694C1.32561 1.96827 1.14441 2.40364 1.14286 2.85805V10.5706C1.14413 10.9493 1.29514 11.3121 1.56294 11.5799C1.83076 11.8477 2.19362 11.9987 2.57235 12H2.85714Z" fill="black" /></svg>
