<svg width="100" height="117" viewBox="0 0 100 117" fill="none" xmlns="http://www.w3.org/2000/svg"><path fill-rule="evenodd" clip-rule="evenodd" d="M94.2029 58.913C94.2029 78.9234 77.9813 95.1449 57.971 95.1449C37.9607 95.1449 21.7391 78.9234 21.7391 58.913C21.7391 38.9027 37.9607 22.6812 57.971 22.6812C77.9813 22.6812 94.2029 38.9027 94.2029 58.913ZM57.971 87.8986C73.9793 87.8986 86.9565 74.9213 86.9565 58.913C86.9565 42.9048 73.9793 29.9275 57.971 29.9275C41.9628 29.9275 28.9855 42.9048 28.9855 58.913C28.9855 74.9213 41.9628 87.8986 57.971 87.8986Z" fill="#555555" fill-opacity="0.75"/><path fill-rule="evenodd" clip-rule="evenodd" d="M37.3625 20.6339C45.0924 16.4721 53.9014 14.7462 62.631 15.6832C71.3607 16.6202 79.6023 20.1762 86.2721 25.8836C91.0958 30.0112 94.9341 35.1244 97.5489 40.8454C99.2133 44.4871 96.8643 48.4999 92.9966 49.5358V49.5358C89.13 50.5715 85.2291 48.2063 83.268 44.7166C81.6112 41.7686 79.442 39.1166 76.8439 36.8934C72.3973 33.0885 66.9029 30.7178 61.0832 30.0931C55.2634 29.4685 49.3908 30.6191 44.2375 33.3936C39.0842 36.1681 34.8916 40.4367 32.2109 45.638C29.5302 50.8393 28.4869 56.7298 29.2183 62.5349C29.9497 68.3401 32.4215 73.7881 36.3087 78.1625C40.1959 82.5369 45.3164 85.633 50.997 87.0435C54.3176 87.8681 57.7388 88.0942 61.1035 87.7306C65.0819 87.3008 69.2707 89.1036 70.6716 92.8519V92.8519C72.0729 96.6016 70.1695 100.842 66.2392 101.602C60.0599 102.795 53.6654 102.639 47.5017 101.109C38.9809 98.993 31.3001 94.3489 25.4693 87.7872C19.6385 81.2256 15.9308 73.0536 14.8337 64.3459C13.7366 55.6382 15.3015 46.8024 19.3226 39.0005C23.3436 31.1985 29.6326 24.7957 37.3625 20.6339Z" fill="#666666" fill-opacity="0.5"/><path fill-rule="evenodd" clip-rule="evenodd" d="M45.0006 9.91676C50.1109 8.55319 55.3811 7.99643 60.6221 8.24647C66.6289 8.53305 70.0996 14.6308 68.537 20.438V20.438C66.9791 26.2279 60.9198 29.4445 54.9605 30.1058C53.5106 30.2667 52.0699 30.5365 50.6508 30.9151C45.7154 32.232 41.2152 34.8194 37.6023 38.4171C33.9894 42.0149 31.3911 46.4963 30.0687 51.411C28.7463 56.3256 28.7463 61.5004 30.0687 66.415C31.3911 71.3297 33.9894 75.8111 37.6023 79.4089C41.2152 83.0066 45.7154 85.594 50.6508 86.9109C55.5861 88.2277 60.7825 88.2277 65.7179 86.9109C67.1335 86.5331 68.5134 86.0509 69.8467 85.4702C75.3458 83.0755 82.2022 82.8303 86.4522 87.0625V87.0625C90.7275 91.3199 90.7701 98.362 85.6852 101.61C81.2854 104.42 76.459 106.551 71.368 107.909C62.7312 110.214 53.6374 110.214 45.0006 107.909C36.3638 105.605 28.4883 101.077 22.1657 94.7807C15.8431 88.4846 11.2962 80.6421 8.98201 72.0415C6.66778 63.4409 6.66778 54.3851 8.98201 45.7845C11.2962 37.1839 15.8431 29.3414 22.1657 23.0453C28.4883 16.7492 36.3638 12.2213 45.0006 9.91676Z" fill="#CCCCCC" fill-opacity="0.25"/><path fill-rule="evenodd" clip-rule="evenodd" d="M43.3291 2.82988C52.3704 0.466042 61.8493 0.319859 70.9593 2.40377C72.961 2.86166 74.9318 3.42425 76.8642 4.08768C88.225 7.98812 89.329 22.21 81.5326 31.3477V31.3477C78.9365 34.3905 74.3863 34.6546 70.7952 32.8932C68.7928 31.911 66.6765 31.1594 64.4865 30.6584C59.9315 29.6165 55.192 29.6895 50.6714 30.8715C46.1508 32.0534 41.9828 34.3091 38.5222 37.4468C35.0616 40.5844 32.4108 44.511 30.7954 48.8925C29.1799 53.2739 28.6477 57.9805 29.244 62.6117C29.8402 67.2429 31.5473 71.6616 34.22 75.4918C36.8927 79.322 40.4518 82.4502 44.5945 84.6104V84.6104C51.4259 88.1725 58.0137 94.1441 58.0137 101.848V102.391C58.0137 110.395 51.4268 117.062 43.6708 115.084C39.3508 113.983 35.1567 112.384 31.1754 110.308C22.89 105.987 15.7717 99.7309 10.4264 92.0705C5.08102 84.4102 1.6668 75.5728 0.474262 66.3104C-0.718273 57.048 0.346182 47.6348 3.57705 38.8719C6.80791 30.109 12.1095 22.2557 19.0307 15.9805C25.952 9.70522 34.2879 5.19371 43.3291 2.82988Z" fill="#999999" fill-opacity="0.25"/><path fill-rule="evenodd" clip-rule="evenodd" d="M57.971 70.5073C64.3743 70.5073 69.5652 65.3163 69.5652 58.913C69.5652 52.5097 64.3743 47.3188 57.971 47.3188C51.5677 47.3188 46.3768 52.5097 46.3768 58.913C46.3768 65.3163 51.5677 70.5073 57.971 70.5073ZM57.971 73.4058C65.9752 73.4058 72.4638 66.9172 72.4638 58.913C72.4638 50.9089 65.9752 44.4203 57.971 44.4203C49.9669 44.4203 43.4783 50.9089 43.4783 58.913C43.4783 66.9172 49.9669 73.4058 57.971 73.4058Z" fill="#666666"/><path fill-rule="evenodd" clip-rule="evenodd" d="M63.8775 58.9397C63.8923 58.0351 63.7069 57.1396 63.3365 56.3263C63.0592 55.7174 62.6839 55.1675 62.2295 54.701C61.9727 54.4374 61.911 54.0266 62.1229 53.7257V53.7257C62.3554 53.3956 62.8212 53.3288 63.1059 53.6151C63.6966 54.2091 64.1832 54.9145 64.5402 55.6981C65.0032 56.7147 65.2349 57.8341 65.2164 58.9649C65.1978 60.0957 64.9296 61.2057 64.4335 62.2042C64.0515 62.9733 63.5427 63.6594 62.9336 64.2305C62.6387 64.507 62.175 64.4239 61.9537 64.0856V64.0856C61.7516 63.7765 61.8279 63.3667 62.0946 63.1112C62.5627 62.6626 62.9547 62.1282 63.2512 61.5312C63.6481 60.7324 63.8627 59.8444 63.8775 58.9397Z" fill="#666666"/></svg>
