<svg width="512" height="512" viewBox="0 0 512 512" fill="none" xmlns="http://www.w3.org/2000/svg"><g clip-path="url(#clip0_1405_9)"><g filter="url(#filter0_d_1405_9)"><rect x="6" y="2" width="500" height="500" rx="120" fill="white"/></g><path fill-rule="evenodd" clip-rule="evenodd" d="M428 254.5C428 330.992 365.991 393 289.5 393C213.009 393 151 330.992 151 254.5C151 178.008 213.009 116 289.5 116C365.991 116 428 178.008 428 254.5ZM289.5 365.3C350.693 365.3 400.3 315.693 400.3 254.5C400.3 193.307 350.693 143.7 289.5 143.7C228.307 143.7 178.7 193.307 178.7 254.5C178.7 315.693 228.307 365.3 289.5 365.3Z" fill="#555555" fill-opacity="0.75"/><path fill-rule="evenodd" clip-rule="evenodd" d="M210.541 107.91C240.13 91.9728 273.849 85.3635 307.264 88.9517C340.68 92.54 372.228 106.158 397.758 128.014C416.223 143.821 430.915 163.402 440.924 185.31C447.295 199.256 438.303 214.623 423.498 218.59C408.698 222.557 393.766 213.499 386.259 200.135C379.917 188.846 371.614 178.69 361.669 170.176C344.648 155.605 323.616 146.527 301.34 144.134C279.063 141.743 256.583 146.149 236.857 156.774C217.132 167.399 201.083 183.745 190.822 203.664C180.561 223.582 176.567 246.14 179.367 268.37C182.166 290.601 191.628 311.465 206.507 328.216C221.387 344.968 240.987 356.825 262.732 362.226C275.442 365.384 288.538 366.25 301.417 364.857C316.646 363.212 332.68 370.115 338.042 384.469C343.406 398.829 336.12 415.068 321.076 417.978C297.423 422.547 272.946 421.949 249.352 416.09C216.736 407.987 187.335 390.202 165.016 365.074C142.697 339.947 128.505 308.652 124.305 275.306C120.106 241.96 126.096 208.123 141.488 178.245C156.879 148.368 180.953 123.848 210.541 107.91Z" fill="#666666" fill-opacity="0.5"/><path fill-rule="evenodd" clip-rule="evenodd" d="M239.978 67.6104C259.467 62.3953 279.565 60.266 299.552 61.2223C322.459 62.3183 335.695 85.6396 329.736 107.85C323.795 129.993 300.687 142.296 277.961 144.825C272.432 145.44 266.937 146.472 261.526 147.92C242.704 152.957 225.542 162.852 211.764 176.612C197.986 190.372 188.078 207.511 183.035 226.308C177.991 245.104 177.991 264.895 183.035 283.692C188.078 302.488 197.986 319.628 211.764 333.388C225.542 347.147 242.704 357.043 261.526 362.08C280.347 367.116 300.164 367.116 318.985 362.08C324.383 360.635 329.646 358.791 334.73 356.57C355.702 347.411 381.849 346.473 398.057 362.659C414.361 378.942 414.523 405.875 395.132 418.297C378.353 429.044 359.947 437.194 340.532 442.388C307.595 451.204 272.915 451.204 239.978 442.388C207.041 433.576 177.008 416.259 152.896 392.178C128.784 368.098 111.444 338.104 102.619 305.211C93.7936 272.317 93.7936 237.683 102.619 204.789C111.444 171.895 128.784 141.901 152.896 117.821C177.008 93.7415 207.041 76.4243 239.978 67.6104Z" fill="#CCCCCC" fill-opacity="0.25"/><path fill-rule="evenodd" clip-rule="evenodd" d="M233.715 40.2221C268.294 31.1791 304.546 30.6199 339.388 38.592C347.043 40.3437 354.581 42.4959 361.971 45.0339C405.421 59.9552 409.644 114.362 379.826 149.319C369.897 160.959 352.495 161.969 338.76 155.231C331.102 151.474 323.008 148.598 314.632 146.682C297.211 142.696 279.085 142.975 261.796 147.497C244.506 152.018 228.566 160.648 215.33 172.651C202.095 184.654 191.957 199.675 185.779 216.437C179.6 233.198 177.565 251.204 179.845 268.921C182.126 286.638 188.654 303.542 198.876 318.194C209.098 332.847 222.71 344.814 238.554 353.078C264.681 366.705 289.877 389.55 289.877 419.021V421.099C289.877 451.718 264.685 477.223 235.021 469.656C218.499 465.444 202.459 459.327 187.232 451.385C155.544 434.855 128.32 410.922 107.876 381.617C87.4326 352.312 74.3748 318.504 69.8138 283.07C65.2529 247.636 69.324 211.626 81.6806 178.103C94.0372 144.58 114.313 114.537 140.784 90.5305C167.255 66.5241 199.136 49.2651 233.715 40.2221Z" fill="#999999" fill-opacity="0.25"/><path fill-rule="evenodd" clip-rule="evenodd" d="M289.5 298.9C314.021 298.9 333.9 279.021 333.9 254.5C333.9 229.978 314.021 210.1 289.5 210.1C264.978 210.1 245.1 229.978 245.1 254.5C245.1 279.021 264.978 298.9 289.5 298.9ZM289.5 310C320.152 310 345 285.152 345 254.5C345 223.848 320.152 199 289.5 199C258.848 199 234 223.848 234 254.5C234 285.152 258.848 310 289.5 310Z" fill="#666666"/><path fill-rule="evenodd" clip-rule="evenodd" d="M311.844 255.093C311.901 251.627 311.187 248.196 309.762 245.08C308.695 242.747 307.251 240.64 305.502 238.853C304.514 237.843 304.277 236.269 305.092 235.116C305.987 233.851 307.779 233.595 308.875 234.692C311.148 236.968 313.02 239.671 314.394 242.673C316.176 246.568 317.067 250.857 316.996 255.189C316.924 259.522 315.892 263.775 313.983 267.601C312.514 270.547 310.556 273.176 308.212 275.364C307.077 276.424 305.293 276.105 304.441 274.809C303.663 273.625 303.957 272.055 304.983 271.076C306.785 269.357 308.293 267.309 309.434 265.022C310.961 261.961 311.787 258.559 311.844 255.093Z" fill="#666666"/></g><defs><filter id="filter0_d_1405_9" x="-1" y="-1" width="514" height="514" filterUnits="userSpaceOnUse" color-interpolation-filters="sRGB"><feFlood flood-opacity="0" result="BackgroundImageFix"/><feColorMatrix in="SourceAlpha" type="matrix" values="0 0 0 0 0 0 0 0 0 0 0 0 0 0 0 0 0 0 127 0" result="hardAlpha"/><feMorphology radius="1" operator="dilate" in="SourceAlpha" result="effect1_dropShadow_1405_9"/><feOffset dy="4"/><feGaussianBlur stdDeviation="3"/><feComposite in2="hardAlpha" operator="out"/><feColorMatrix type="matrix" values="0 0 0 0 0 0 0 0 0 0 0 0 0 0 0 0 0 0 0.25 0"/><feBlend mode="normal" in2="BackgroundImageFix" result="effect1_dropShadow_1405_9"/><feBlend mode="normal" in="SourceGraphic" in2="effect1_dropShadow_1405_9" result="shape"/></filter><clipPath id="clip0_1405_9"><rect width="512" height="512" fill="white"/></clipPath></defs></svg>
