<svg width="38" height="25" viewBox="0 0 38 25" fill="none" xmlns="http://www.w3.org/2000/svg">
<path fill-rule="evenodd" clip-rule="evenodd" d="M8.52273 19.3184C12.2883 19.3184 15.3409 16.2658 15.3409 12.5003C15.3409 8.73469 12.2883 5.68208 8.52273 5.68208C4.75715 5.68208 1.70455 8.73469 1.70455 12.5003C1.70455 16.2658 4.75715 19.3184 8.52273 19.3184ZM8.52273 21.023C13.2297 21.023 17.0455 17.2072 17.0455 12.5003C17.0455 7.79329 13.2297 3.97754 8.52273 3.97754C3.81575 3.97754 0 7.79329 0 12.5003C0 17.2072 3.81575 21.023 8.52273 21.023Z" fill="black" fill-opacity="0.8"/>
<path fill-rule="evenodd" clip-rule="evenodd" d="M12.1537 12.5156C12.1607 11.9836 12.0735 11.457 11.8993 10.9787C11.7607 10.5986 11.5703 10.2576 11.3386 9.97281C11.2337 9.84396 11.2074 9.66406 11.2889 9.51931C11.41 9.30443 11.703 9.26586 11.8515 9.46278C12.1021 9.79515 12.31 10.1825 12.4655 10.6093C12.6833 11.2071 12.7924 11.8654 12.7836 12.5304C12.7749 13.1954 12.6487 13.8481 12.4153 14.4353C12.2497 14.8522 12.0333 15.2276 11.7761 15.5468C11.6203 15.7402 11.327 15.6914 11.2119 15.4714C11.1337 15.3219 11.1667 15.1402 11.2774 15.0128C11.5142 14.7402 11.7117 14.4104 11.8591 14.0396C12.0458 13.5698 12.1468 13.0476 12.1537 12.5156Z" fill="black" fill-opacity="0.8"/>
<path fill-rule="evenodd" clip-rule="evenodd" d="M28.9773 5.68155C25.2117 5.68155 22.1591 8.73416 22.1591 12.4997C22.1591 16.2653 25.2117 19.3179 28.9773 19.3179C32.7429 19.3179 35.7955 16.2653 35.7955 12.4997C35.7955 8.73416 32.7429 5.68155 28.9773 5.68155ZM28.9773 3.97701C24.2703 3.97701 20.4545 7.79276 20.4545 12.4997C20.4545 17.2067 24.2703 21.0225 28.9773 21.0225C33.6842 21.0225 37.5 17.2067 37.5 12.4997C37.5 7.79276 33.6842 3.97701 28.9773 3.97701Z" fill="black" fill-opacity="0.8"/>
<path fill-rule="evenodd" clip-rule="evenodd" d="M25.3463 12.4844C25.3393 13.0164 25.4265 13.543 25.6007 14.0213C25.7393 14.4014 25.9297 14.7424 26.1614 15.0272C26.2663 15.156 26.2926 15.3359 26.2111 15.4807C26.09 15.6956 25.797 15.7341 25.6485 15.5372C25.3979 15.2049 25.19 14.8175 25.0345 14.3907C24.8167 13.7929 24.7076 13.1346 24.7164 12.4696C24.7251 11.8046 24.8513 11.1519 25.0847 10.5647C25.2503 10.1478 25.4667 9.77237 25.7239 9.45316C25.8797 9.25984 26.173 9.30861 26.2881 9.52859C26.3663 9.67806 26.3333 9.85981 26.2226 9.98715C25.9858 10.2598 25.7883 10.5896 25.6409 10.9604C25.4542 11.4302 25.3532 11.9524 25.3463 12.4844Z" fill="black" fill-opacity="0.8"/>
<rect x="6.25" width="25" height="25" rx="11.3636" fill="white"/>
<path fill-rule="evenodd" clip-rule="evenodd" d="M18.75 21.5913C23.7708 21.5913 27.8409 17.5211 27.8409 12.5004C27.8409 7.47958 23.7708 3.40945 18.75 3.40945C13.7292 3.40945 9.65908 7.47958 9.65908 12.5004C9.65908 17.5211 13.7292 21.5913 18.75 21.5913ZM18.75 23.864C25.026 23.864 30.1136 18.7763 30.1136 12.5004C30.1136 6.22439 25.026 1.13672 18.75 1.13672C12.474 1.13672 7.38635 6.22439 7.38635 12.5004C7.38635 18.7763 12.474 23.864 18.75 23.864Z" fill="black" fill-opacity="0.8"/>
<path fill-rule="evenodd" clip-rule="evenodd" d="M23.5913 12.5214C23.6006 11.8121 23.4844 11.11 23.252 10.4723C23.0673 9.96542 22.8134 9.51074 22.5044 9.13107C22.3646 8.95926 22.3295 8.7194 22.4382 8.5264C22.5996 8.23989 22.9903 8.18846 23.1883 8.45102C23.5225 8.89418 23.7996 9.41063 24.007 9.97974C24.2975 10.7768 24.4428 11.6545 24.4312 12.5412C24.4196 13.4278 24.2513 14.2982 23.9401 15.0811C23.7192 15.6369 23.4308 16.1375 23.0878 16.5631C22.8801 16.8209 22.4891 16.7558 22.3356 16.4625C22.2313 16.2632 22.2753 16.0209 22.4228 15.8511C22.7387 15.4876 23.002 15.0478 23.1985 14.5534C23.4474 13.927 23.582 13.2307 23.5913 12.5214Z" fill="black" fill-opacity="0.8"/>
</svg>
