<svg width="64" height="64" viewBox="0 0 64 64" fill="none" xmlns="http://www.w3.org/2000/svg"><path fill-rule="evenodd" clip-rule="evenodd" d="M64 32C64 49.6731 49.6731 64 32 64C14.3269 64 0 49.6731 0 32C0 14.3269 14.3269 0 32 0C49.6731 0 64 14.3269 64 32ZM31.9997 32V56.7467C18.3325 56.7467 7.25301 45.6672 7.25301 32C7.25301 18.3328 18.3325 7.25337 31.9997 7.25337V32ZM51.1999 38.3998C54.7345 38.3998 57.5999 35.5344 57.5999 31.9998C57.5999 28.4651 54.7345 25.5998 51.1999 25.5998C47.6653 25.5998 44.7999 28.4651 44.7999 31.9998C44.7999 35.5344 47.6653 38.3998 51.1999 38.3998Z" fill="black"/></svg>
